<svg width="8" height="30" viewBox="0 0 8 30" fill="none" xmlns="http://www.w3.org/2000/svg">
<path d="M4.00002 0C2.16669 0 0.666687 1.5 0.666687 3.33333C0.666687 5.16667 2.16669 6.66667 4.00002 6.66667C5.83335 6.66667 7.33335 5.16667 7.33335 3.33333C7.33335 1.5 5.83335 0 4.00002 0ZM4.00002 23.3333C2.16669 23.3333 0.666687 24.8333 0.666687 26.6667C0.666687 28.5 2.16669 30 4.00002 30C5.83335 30 7.33335 28.5 7.33335 26.6667C7.33335 24.8333 5.83335 23.3333 4.00002 23.3333ZM4.00002 11.6667C2.16669 11.6667 0.666687 13.1667 0.666687 15C0.666687 16.8333 2.16669 18.3333 4.00002 18.3333C5.83335 18.3333 7.33335 16.8333 7.33335 15C7.33335 13.1667 5.83335 11.6667 4.00002 11.6667Z" fill="#A0A0A0"/>
</svg>
